<svg width="1024" height="1024" viewBox="0 0 1024 1024" fill="none" xmlns="http://www.w3.org/2000/svg">
  <defs>
    <linearGradient id="g1" x1="128" y1="128" x2="896" y2="896" gradientUnits="userSpaceOnUse">
      <stop stop-color="#0EA5E9"/>
      <stop offset="1" stop-color="#0F766E"/>
    </linearGradient>
  </defs>

  <rect x="64" y="64" width="896" height="896" rx="210" fill="#FFFFFF"/>
  <rect x="96" y="96" width="832" height="832" rx="184" fill="#F1F5F9"/>

  <path d="M512 246C374 246 262 358 262 496C262 628 457 776 498 805C506 811 518 811 526 805C567 776 762 628 762 496C762 358 650 246 512 246Z" fill="url(#g1)"/>
  <circle cx="512" cy="492" r="140" fill="#FFFFFF"/>

  <path d="M412 500C412 481.222 427.222 466 446 466H578C596.778 466 612 481.222 612 500V533C612 551.778 596.778 567 578 567H446C427.222 567 412 551.778 412 533V500Z" fill="#0F172A"/>
  <circle cx="460" cy="567" r="18" fill="#0F172A"/>
  <circle cx="564" cy="567" r="18" fill="#0F172A"/>

  <path d="M352 708H672" stroke="#0EA5E9" stroke-width="18" stroke-linecap="round"/>
  <path d="M392 760H632" stroke="#10B981" stroke-width="14" stroke-linecap="round"/>

  <text x="512" y="900" text-anchor="middle" fill="#0F172A" font-family="Poppins, Montserrat, Arial, sans-serif" font-size="72" font-weight="700" letter-spacing="1.2">SafarUz</text>
</svg>
