<svg width="1024" height="1024" viewBox="0 0 1024 1024" fill="none" xmlns="http://www.w3.org/2000/svg">
  <defs>
    <linearGradient id="bg" x1="120" y1="110" x2="900" y2="910" gradientUnits="userSpaceOnUse">
      <stop stop-color="#FFF064"/>
      <stop offset="0.55" stop-color="#FFD80E"/>
      <stop offset="1" stop-color="#F4B400"/>
    </linearGradient>
    <radialGradient id="bgGlow" cx="0" cy="0" r="1" gradientUnits="userSpaceOnUse" gradientTransform="translate(520 640) rotate(90) scale(300 340)">
      <stop stop-color="#FFF6B6" stop-opacity="0.95"/>
      <stop offset="1" stop-color="#FFF6B6" stop-opacity="0"/>
    </radialGradient>
    <linearGradient id="pinRed" x1="610" y1="240" x2="820" y2="620" gradientUnits="userSpaceOnUse">
      <stop stop-color="#FF5A66"/>
      <stop offset="0.5" stop-color="#FF1130"/>
      <stop offset="1" stop-color="#D40019"/>
    </linearGradient>
    <linearGradient id="carBody" x1="250" y1="470" x2="760" y2="830" gradientUnits="userSpaceOnUse">
      <stop stop-color="#FFE53A"/>
      <stop offset="0.5" stop-color="#FFC800"/>
      <stop offset="1" stop-color="#F1A600"/>
    </linearGradient>
    <linearGradient id="glass" x1="330" y1="505" x2="690" y2="610" gradientUnits="userSpaceOnUse">
      <stop stop-color="#3B3E45"/>
      <stop offset="1" stop-color="#181A1F"/>
    </linearGradient>
    <linearGradient id="chrome" x1="360" y1="620" x2="662" y2="710" gradientUnits="userSpaceOnUse">
      <stop stop-color="#0D0F14"/>
      <stop offset="1" stop-color="#232731"/>
    </linearGradient>
  </defs>

  <rect x="70" y="70" width="884" height="884" rx="190" fill="url(#bg)"/>
  <rect x="78" y="78" width="868" height="868" rx="182" stroke="#F0A700" stroke-width="6"/>
  <path d="M140 230C140 150 202 88 282 88H742C824 88 890 154 890 236V312C890 258 846 214 792 214H238C184 214 140 258 140 312V230Z" fill="#FFF8A8" fill-opacity="0.55"/>

  <ellipse cx="512" cy="618" rx="300" ry="310" fill="url(#bgGlow)"/>

  <path d="M704 238C594 238 504 328 504 438C504 584 704 760 704 760C704 760 904 584 904 438C904 328 814 238 704 238Z" fill="url(#pinRed)"/>
  <path d="M704 256C606 256 526 336 526 434C526 564 704 720 704 720C704 720 882 564 882 434C882 336 802 256 704 256Z" stroke="#FF93A0" stroke-opacity="0.45" stroke-width="4"/>
  <circle cx="704" cy="438" r="84" fill="#F2EEE2"/>
  <circle cx="704" cy="438" r="74" fill="#ECE8DC"/>

  <ellipse cx="512" cy="812" rx="280" ry="24" fill="#8C5E00" fill-opacity="0.35"/>

  <g>
    <rect x="438" y="388" width="148" height="56" rx="16" fill="#1A1C21"/>
    <rect x="447" y="398" width="130" height="34" rx="8" fill="#FFC107"/>
    <rect x="454" y="402" width="20" height="24" fill="#1B1D22"/>
    <rect x="474" y="402" width="20" height="24" fill="#FFD84C"/>
    <rect x="494" y="402" width="20" height="24" fill="#1B1D22"/>
    <rect x="514" y="402" width="20" height="24" fill="#FFD84C"/>
    <rect x="534" y="402" width="20" height="24" fill="#1B1D22"/>
    <rect x="554" y="402" width="20" height="24" fill="#FFD84C"/>
  </g>

  <path d="M218 734V668C218 608 258 546 318 526L392 470C413 453 438 444 464 444H560C586 444 611 453 632 470L706 526C766 546 806 608 806 668V734C806 768 778 796 744 796H280C246 796 218 768 218 734Z" fill="url(#carBody)"/>
  <path d="M320 541L397 478H627L704 541V598H320V541Z" fill="url(#glass)"/>
  <path d="M338 548L406 486H618L686 548V584H338V548Z" fill="#1D2027"/>
  <path d="M334 560L512 585L690 560V579L512 604L334 579V560Z" fill="#FFE76A" fill-opacity="0.7"/>

  <path d="M262 666C262 642 281 623 305 623H350C374 623 393 642 393 666V688C393 698 385 706 375 706H280C270 706 262 698 262 688V666Z" fill="#E8EDF3"/>
  <path d="M631 666C631 642 650 623 674 623H719C743 623 762 642 762 666V688C762 698 754 706 744 706H649C639 706 631 698 631 688V666Z" fill="#E8EDF3"/>
  <path d="M270 671H385" stroke="#ACB6C4" stroke-width="8" stroke-linecap="round"/>
  <path d="M639 671H754" stroke="#ACB6C4" stroke-width="8" stroke-linecap="round"/>

  <rect x="352" y="622" width="320" height="96" rx="28" fill="url(#chrome)"/>
  <rect x="367" y="638" width="290" height="64" rx="20" fill="#0B0D12"/>
  <path d="M372 670H653" stroke="#2A2E38" stroke-width="6" stroke-linecap="round" stroke-dasharray="4 10"/>

  <rect x="274" y="710" width="122" height="46" rx="20" fill="#161920"/>
  <rect x="628" y="710" width="122" height="46" rx="20" fill="#161920"/>
  <rect x="298" y="720" width="74" height="20" rx="10" fill="#2A2F39"/>
  <rect x="652" y="720" width="74" height="20" rx="10" fill="#2A2F39"/>

  <rect x="360" y="738" width="304" height="52" rx="24" fill="#12151C"/>
  <path d="M374 764H650" stroke="#353A46" stroke-width="8" stroke-linecap="round"/>

  <ellipse cx="278" cy="778" rx="44" ry="30" fill="#080A0F"/>
  <ellipse cx="746" cy="778" rx="44" ry="30" fill="#080A0F"/>

  <path d="M220 736C220 769 246 796 278 796H744C776 796 802 769 802 736" stroke="#D88600" stroke-opacity="0.5" stroke-width="6"/>
</svg>
